<svg width="1920" height="1080" viewBox="0 0 1920 1080" fill="none" xmlns="http://www.w3.org/2000/svg">
<path d="M645.46 448.895C645.956 456.173 645.857 463.549 647.043 470.712C657.992 536.831 669.065 602.928 680.264 669.005C681.675 677.406 683.362 685.778 684.327 694.231C685.475 704.293 682.187 708.42 672.529 708.554C651.505 708.846 630.477 708.852 609.446 708.57C599.585 708.445 596.486 705.513 594.986 695.511C590.27 664.054 585.791 632.562 581.184 601.09C577.666 577.06 574.094 553.038 570.462 528.444C564.148 529.951 563.41 535.058 561.496 538.729C538.391 583.048 515.39 627.421 492.492 671.849C488.053 680.425 483.594 688.991 479.117 697.548C474.672 706.022 471.433 714.891 458.81 715.105C446.181 715.319 442.586 706.848 438.1 698.23C418.694 660.945 399.254 623.677 379.781 586.426C371.113 569.808 362.502 553.159 353.783 536.567C352.287 533.719 350.379 531.089 348.208 527.639C344.234 531.661 345.17 535.824 344.347 539.339C343.443 543.2 343.013 547.175 342.45 551.11C335.694 598.345 328.947 645.581 322.21 692.819C321.969 694.506 321.925 696.232 321.56 697.89C319.863 705.579 316.903 708.377 308.572 708.553C293.801 708.866 279.02 708.677 264.244 708.682C257.424 708.684 250.591 708.904 243.787 708.565C235.094 708.133 231.098 703.87 232.171 695.474C233.681 683.648 235.88 671.908 237.86 660.144C248.884 594.613 259.92 529.083 270.967 463.556C278.981 415.949 286.985 368.34 294.979 320.729C295.073 320.169 295.126 319.601 295.233 319.044C297.77 305.866 303.774 301.805 316.808 304.32C318.785 304.587 320.674 305.306 322.328 306.421C323.982 307.536 325.357 309.017 326.347 310.749C328.564 314.714 330.723 318.711 332.872 322.713C371.575 394.765 410.295 466.809 449.03 538.844C451.605 543.625 453.309 549.206 458.834 553.146C463.668 548.209 465.973 542.462 468.833 537.141C501.912 475.607 534.976 414.064 568.025 352.514C570.696 347.548 573.852 342.844 576.783 338.019C591.146 361.983 605.515 385.943 619.888 409.9C622.187 413.724 625.827 414.744 630.05 414.216C630.884 415.467 631.717 416.719 632.551 417.97C628.579 423.108 628.601 423.19 635.788 424.95C637.325 428.573 638.863 432.197 640.4 435.821C641.074 437.161 641.749 438.502 642.424 439.843L642.431 440.707C642.283 443.857 640.686 447.594 645.657 448.67L645.851 448.945L645.46 448.895Z" fill="#C83C2A"/>
<path d="M642.431 440.707C642.431 440.707 642.423 439.843 642.423 439.827C641.748 438.481 641.074 437.151 640.4 435.821C638.862 432.197 637.325 428.573 635.787 424.949C634.708 422.623 633.629 420.297 632.551 417.97C631.717 416.719 630.88 415.468 630.04 414.218C629.299 410.925 628.336 407.686 627.157 404.523C616.546 380.868 605.901 357.227 594.968 333.72C592.319 328.809 589.355 324.074 586.096 319.544C588.448 305.82 590.37 303.394 602.834 303.237C624.983 302.957 647.141 303.468 669.296 303.492C677.824 303.502 682.783 307.777 686.094 315.342C693.833 333.028 701.961 350.544 709.912 368.138C730.953 414.705 751.996 461.272 773.038 507.839C774.407 510.865 776.06 513.762 777.438 516.442C783.801 516.823 784.049 511.871 785.525 508.653C799.252 478.717 812.721 448.664 826.398 418.705C852.098 362.413 877.994 306.21 903.54 249.848C908.298 239.351 915.182 233.936 927.072 234.001C978.202 234.279 1029.33 234.156 1080.46 234.256C1081.3 234.257 1082.13 235.22 1084.07 236.418C1079.69 239.441 1075.81 242.368 1071.7 244.912C1046.1 260.741 1020.43 276.456 994.838 292.289C991.423 294.262 988.262 296.647 985.427 299.389C984.67 300.17 986.239 303.204 986.75 305.205C985.213 305.806 982.939 305.952 982.232 307.08C973.745 320.624 963.263 333.278 962.027 350.222C960.15 351.21 957.404 351.717 956.544 353.268C952.144 361.201 948.024 369.287 944.181 377.526C894.991 482.945 845.837 588.381 796.721 693.835C795.413 696.979 793.937 700.051 792.301 703.038C785.906 713.622 772.297 713.821 765.794 703.454C764.379 700.994 763.12 698.447 762.023 695.829C725.504 617.061 688.999 538.287 652.509 459.506C651.326 456.952 650.52 454.223 649.538 451.576C648.309 450.7 647.08 449.823 645.851 448.945L645.656 448.67C646.697 445.159 645.215 442.67 642.431 440.707Z" fill="#EE8D2D"/>
<path d="M962.028 350.222C963.264 333.278 973.745 320.624 982.233 307.08C982.94 305.952 985.214 305.806 986.75 305.205C1003.22 305.077 1019.7 304.918 1036.18 304.852C1039.02 304.783 1041.86 305.001 1044.66 305.502C1046.65 305.796 1048.48 306.766 1049.85 308.249C1051.21 309.731 1052.03 311.638 1052.16 313.649C1052.51 317.608 1052.66 321.582 1052.59 325.555C1052.61 412.537 1052.63 499.518 1052.65 586.499C1053 604.165 1049.71 621.713 1043 638.055C1025.62 678.698 994.146 701.363 951.158 707.862C926.663 711.566 902.389 709.698 879.781 697.725C867.636 691.441 856.749 682.98 847.662 672.762C839.707 663.701 839.545 659.081 847.575 650.801C858.654 639.377 869.963 628.178 881.502 617.204C888.434 610.612 892.931 610.548 900.816 617.006C907.639 622.593 914.815 626.294 923.809 626.826C937.811 627.654 947.907 621.817 954.927 610.051C958.454 604.169 960.469 597.505 960.794 590.655C961.11 584.416 961.27 578.169 961.272 571.914C961.411 500.853 961.533 429.791 961.638 358.729C961.643 355.893 961.892 353.058 962.028 350.222Z" fill="#C73B28"/>
<path d="M1285.45 711.515C1291.21 708.891 1293.71 707.756 1296.91 706.297V682.865C1294.55 681.808 1292.1 680.712 1289.65 679.613C1293.39 670.101 1293.4 670.101 1304 667.79C1307.79 679.826 1304.23 692.424 1306.56 705.362C1310.9 707.312 1314.93 713.333 1320.65 710.168C1326.47 706.95 1336.7 711.537 1338.54 699.422C1335.48 698.927 1332.45 698.265 1329.47 697.441C1321.85 694.922 1318.16 690.021 1317.86 682.542C1317.58 675.55 1320.88 669.815 1326.6 667.36C1329.75 666.015 1333.27 665.75 1336.59 666.606C1339.91 667.461 1342.85 669.39 1344.97 672.093C1347.26 675.289 1348.94 678.887 1349.91 682.7C1350.79 687.128 1351.36 691.61 1351.61 696.116C1359.23 690.972 1359.86 690.769 1357.68 683.974C1355.62 677.549 1357.07 672.736 1361.91 668.896C1366.92 664.916 1375.9 665.25 1381.11 669.097C1385.13 672.068 1387.79 676.748 1385.73 680.926C1381.05 690.387 1387.06 696.771 1389.68 704.129C1395.92 699.116 1401.52 694.634 1407.1 690.111C1408.94 688.812 1410.63 687.313 1412.15 685.64C1414.33 682.842 1415.52 679.428 1413.16 676.276C1410.76 673.065 1407.26 673.267 1404.05 675.095C1401.95 676.445 1399.94 677.931 1398.04 679.544C1394.05 676.728 1394.07 673.883 1396.02 671.526C1397.5 669.813 1399.32 668.428 1401.36 667.459C1403.4 666.491 1405.62 665.96 1407.88 665.901C1410.14 665.842 1412.39 666.256 1414.48 667.118C1416.57 667.979 1418.46 669.267 1420.02 670.901C1422.3 673.494 1423.5 676.865 1423.36 680.315C1423.22 683.766 1421.76 687.03 1419.28 689.433C1415.78 693.029 1411.22 695.575 1407.2 698.683C1404.61 700.693 1401.33 702.313 1401.86 706.897C1405.24 708.096 1408.86 708.461 1412.42 707.962C1415.97 707.462 1419.35 706.112 1422.27 704.027C1424.63 710.699 1424.05 713.888 1420.64 714.129C1409.51 714.916 1398.05 717.357 1388.44 709.193C1368.12 719.112 1363.52 718.108 1351.49 701.18C1346.85 701.657 1346.16 706.287 1343.63 708.937C1338.98 713.817 1333.08 716.931 1326.87 714.873C1319.91 712.562 1313.53 715.004 1306.92 714.769C1300.98 714.558 1294.78 715.911 1285.45 711.515ZM1342.01 683.312C1341.67 677.553 1337.56 673.459 1332.41 673.756C1327.85 674.02 1324.72 678.329 1325.39 683.409C1325.49 684.532 1325.81 685.622 1326.34 686.616C1326.87 687.609 1327.6 688.485 1328.48 689.19C1329.36 689.895 1330.37 690.415 1331.46 690.719C1332.54 691.022 1333.68 691.104 1334.79 690.957C1335.78 690.963 1336.75 690.767 1337.66 690.379C1338.57 689.991 1339.39 689.421 1340.06 688.704C1340.74 687.987 1341.26 687.138 1341.59 686.21C1341.93 685.282 1342.07 684.296 1342.01 683.312ZM1379.2 702.863C1379.85 698.721 1376.38 695.013 1370.81 693.893C1369.16 693.469 1367.4 693.716 1365.93 694.58C1364.46 695.444 1363.38 696.855 1362.95 698.506C1361.76 703.421 1364.61 707.401 1369.84 708.141C1374.5 708.8 1378.63 706.469 1379.2 702.863ZM1374.36 686.512C1375.54 684.568 1377.8 682.201 1378.41 679.464C1379.13 676.263 1375.95 673.887 1371.91 673.647C1367.93 673.412 1364.84 675.932 1365.19 679.123C1365.58 681.248 1366.72 683.163 1368.41 684.519C1370.09 685.875 1372.2 686.582 1374.36 686.512Z" fill="#F2A353"/>
<path d="M1073.24 835.981C1071.55 838.41 1070.55 839.701 1069.7 841.079C1067 845.439 1062.97 844.569 1059.18 843.511C1055.28 842.42 1054.48 839.039 1054.44 835.431C1054.38 828.624 1054.47 821.811 1054.21 815.011C1054.04 810.385 1053.21 805.646 1047.85 804.23C1045.37 803.459 1042.7 803.545 1040.27 804.474C1037.85 805.404 1035.8 807.122 1034.47 809.354C1032.3 813.253 1030.95 817.553 1030.51 821.992C1029.78 827.581 1030.26 833.316 1029.96 838.974C1029.72 843.228 1028.02 843.867 1020.57 842.202C1020.44 836.823 1020.26 831.224 1020.16 825.623C1020.08 820.518 1020.77 815.28 1019.83 810.347C1019.06 806.308 1016.39 802.63 1014.58 798.813C1018.93 794.645 1023.41 795.197 1027.41 797.38C1028.79 798.323 1030.41 798.835 1032.08 798.849C1033.74 798.863 1035.38 798.379 1036.77 797.459C1039.25 796.084 1041.96 795.16 1044.77 794.728C1054.16 793.084 1061.9 798.126 1063.54 807.456C1064.51 812.989 1064.18 818.742 1064.57 824.386C1064.66 827.181 1065.04 829.958 1065.71 832.673C1066.69 836.061 1071.58 837.059 1075.43 834.892C1076.86 834.086 1078.2 833.113 1079.18 832.475C1084.07 834.196 1089.04 835.635 1094.09 836.784C1094.79 836.952 1095.51 836.96 1096.22 836.808C1096.92 836.655 1097.58 836.346 1098.14 835.903C1098.7 835.459 1099.16 834.894 1099.48 834.249C1099.79 833.604 1099.96 832.897 1099.96 832.179C1099.89 831.127 1099.6 830.101 1099.1 829.172C1098.6 828.242 1097.91 827.43 1097.07 826.791C1092.77 824.111 1087.9 822.362 1083.54 819.77C1077.48 816.172 1074.85 810.965 1076.13 805.754C1077.46 800.284 1081.27 797.338 1086.51 795.573C1089.75 794.489 1093.18 794.12 1096.57 794.492C1099.96 794.864 1103.23 795.968 1106.15 797.727C1106.9 798.117 1107.56 798.652 1108.1 799.3C1108.63 799.948 1109.04 800.696 1109.28 801.501C1109.55 803.566 1109.13 805.661 1108.09 807.468C1107.45 807.901 1106.71 808.163 1105.94 808.228C1105.16 808.293 1104.39 808.16 1103.68 807.841C1099.58 804.403 1095.43 801.788 1089.89 803.992C1088.94 804.369 1087.59 805.235 1087.51 805.992C1087.2 807.583 1087.48 809.232 1088.3 810.632C1089.9 812.191 1091.77 813.453 1093.81 814.359C1097.32 816.195 1101.1 817.546 1104.46 819.599C1110.42 823.238 1112.77 828.374 1111.39 833.751C1110.76 836.552 1109.26 839.083 1107.11 840.984C1104.96 842.886 1102.27 844.061 1099.41 844.344C1092.7 845.346 1082.9 846.129 1073.24 835.981Z" fill="#CE5543"/>
<path d="M857.724 797.587C859.673 796.805 861.708 796.256 863.785 795.952C871.449 796.122 873.42 797.719 873.709 804.434C874.001 811.234 873.739 818.057 873.921 824.865C874.028 828.886 874.53 832.968 879.028 834.717C883.431 836.43 890.378 834.823 892.667 830.51C894.981 826.044 896.469 821.198 897.059 816.203C897.483 810.134 897.542 804.044 897.235 797.968C905.075 796.377 906.926 796.934 907.073 800.864C907.348 808.234 907.224 815.616 907.355 822.992C907.325 825.826 907.522 828.658 907.945 831.461C908.62 835.192 913.117 836.864 917.296 835.01C918.825 834.149 920.273 833.152 921.624 832.033C925.183 833.697 928.831 835.163 932.552 836.424C934.728 836.936 937.002 836.838 939.125 836.14C939.868 835.834 940.537 835.372 941.087 834.785C941.636 834.199 942.053 833.501 942.309 832.739C942.507 831.966 942.521 831.157 942.349 830.378C942.178 829.599 941.825 828.871 941.32 828.253C938.106 826.008 934.415 824.465 931.041 822.429C927.549 820.605 924.276 818.388 921.288 815.82C920.221 814.678 919.398 813.331 918.867 811.861C918.336 810.391 918.109 808.828 918.2 807.268C918.291 805.708 918.698 804.182 919.396 802.784C920.095 801.385 921.07 800.143 922.262 799.133C929.48 792.977 942.926 792.404 950.441 799.434C951.323 800.157 951.933 801.158 952.173 802.273C952.44 803.879 952.139 805.528 951.324 806.938C950.719 807.461 950.007 807.844 949.238 808.06C948.469 808.277 947.661 808.322 946.873 808.191C945.37 807.898 944.213 806.138 942.699 805.533C940.252 804.319 937.596 803.581 934.874 803.357C933.83 803.435 932.82 803.763 931.93 804.313C931.04 804.864 930.296 805.622 929.762 806.522C929.655 807.566 929.795 808.621 930.169 809.601C930.544 810.582 931.144 811.461 931.92 812.168C934.26 813.749 936.79 815.03 939.45 815.98C942.057 817.074 944.598 818.32 947.059 819.713C952.802 823.372 955.004 828.401 953.489 834.12C951.843 840.332 947.319 843.468 941.308 844.445C936.912 845.328 932.366 845.121 928.068 843.842C923.77 842.562 919.85 840.25 916.652 837.106C907.742 845.793 907.742 845.794 897.196 840.487C890.439 842.023 884.517 844.178 878.487 844.538C870.681 845.004 865.759 840.434 864.3 832.725C863.804 829.358 863.576 825.958 863.616 822.555C863.236 808.947 863.261 808.947 857.724 797.587Z" fill="#CE5543"/>
<path d="M1268.6 558.679C1268.73 563.297 1266.94 565.621 1263.71 565.237C1260.43 564.848 1257.37 562.84 1254.09 562.139C1243.29 559.834 1234.25 563.493 1229.25 572.3C1226.67 576.43 1225.4 581.241 1225.6 586.105C1225.79 590.97 1227.45 595.662 1230.35 599.571C1238.73 611.727 1252.77 611.687 1265.27 599.277C1263.55 595.68 1261.71 591.843 1259.82 587.896C1266.54 585.68 1266.54 585.68 1273.42 587.543C1274.25 594.962 1275.12 602.615 1276.13 611.614C1280.36 609.68 1283.22 608.374 1287.09 606.605C1287.09 593.622 1287.52 580.65 1286.83 567.738C1286.63 564.016 1283.21 560.468 1281.24 556.786C1291.35 553.123 1291.35 553.123 1301.83 556.257C1300.16 560.651 1297.79 564.913 1297.02 569.447C1296.17 574.406 1296.8 579.616 1296.8 584.718C1296.8 589.819 1296.18 595.031 1297.03 599.989C1297.83 604.646 1300.19 609.035 1301.93 613.695C1298.6 618.118 1293.69 616.5 1289.58 616.199C1285.39 615.891 1281.11 612.577 1277.25 613.158C1273.09 613.785 1269.71 616.86 1264.65 614.711C1262.12 613.635 1258.24 615.689 1254.98 616.361C1239.97 619.453 1228.19 615.021 1220.93 603.539C1217.31 597.735 1215.5 590.983 1215.74 584.145C1215.97 577.308 1218.24 570.697 1222.26 565.156C1230.34 554.349 1243.16 549.984 1257.04 553.772C1261.01 555.125 1264.87 556.765 1268.6 558.679Z" fill="#CE5543"/>
<path d="M1207.13 801.012C1202.48 802.426 1197.7 803.878 1192.55 805.446C1192.35 809.629 1192.15 813.53 1191.98 817.432C1191.62 825.689 1191.77 833.66 1202.18 836.04C1202.45 836.142 1202.68 836.301 1202.88 836.506C1203.07 836.711 1203.22 836.958 1203.31 837.227C1203.59 838.275 1204.1 839.65 1203.67 840.416C1202.93 841.736 1201.62 843.557 1200.41 843.667C1198.3 843.961 1196.14 843.824 1194.08 843.265C1192.02 842.705 1190.09 841.735 1188.41 840.412C1186.73 839.089 1185.34 837.44 1184.32 835.565C1183.29 833.69 1182.66 831.627 1182.45 829.5C1181.69 823.305 1181.54 817.051 1181.99 810.826C1182.27 806.105 1178.82 804.069 1176.58 800.988C1178.48 796.633 1180.71 792.349 1182.19 787.817C1183.21 784.655 1184.66 782.838 1188.02 783.249C1191.82 783.714 1191.67 786.875 1192.09 789.616C1192.26 790.723 1192.6 791.803 1193.1 793.876C1195.63 794.772 1199.12 795.246 1201.61 797.082C1205.05 799.613 1207.26 798.262 1210.6 797.001C1213.94 795.741 1218.13 796.725 1222.68 796.725C1223.51 800.112 1224.14 803.548 1224.55 807.013C1224.92 813.802 1224.53 820.642 1225.1 827.406C1225.66 834.131 1230.79 836.866 1237.36 834.719C1239.56 834.127 1241.57 832.95 1243.16 831.312C1244.75 829.673 1245.87 827.635 1246.4 825.413C1247.24 821.552 1247.76 817.628 1247.94 813.681C1248.25 809.161 1248.17 804.616 1248.32 800.084C1248.59 799.096 1248.97 798.141 1249.45 797.236C1251.16 796.944 1253.6 796.526 1256.36 796.053C1259.08 803.567 1257.75 810.387 1257.99 817.045C1258.25 824.285 1257.09 831.58 1262.61 837.894C1264.91 840.522 1261.42 844.582 1257.49 844.086C1255.26 844.028 1253.07 843.441 1251.12 842.375C1249.86 841.239 1248.25 840.578 1246.56 840.507C1244.87 840.435 1243.2 840.957 1241.86 841.983C1240.45 842.949 1238.9 843.672 1237.25 844.121C1223.29 847.481 1215.5 841.634 1214.62 827.073C1214.35 822.549 1214.51 817.998 1214.49 813.46C1214.48 807.505 1214.49 807.492 1207.13 801.012Z" fill="#CE5543"/>
<path d="M777.386 805.377C775.674 804.26 773.655 803.711 771.613 803.807C769.572 803.903 767.612 804.639 766.013 805.911C763.947 807.441 762.243 809.408 761.023 811.67C759.803 813.933 759.096 816.437 758.953 819.004C758.537 825.795 758.797 832.633 758.236 839.407C757.857 843.986 754.635 844.558 750.632 843.039C747.082 838.033 748.971 832.183 748.598 826.663C748.216 821.013 748.438 815.308 747.805 809.694C747.268 804.93 741.993 802.41 737.354 804.273C734.675 805.281 732.34 807.032 730.622 809.32C728.904 811.609 727.875 814.34 727.654 817.193C727.107 821.68 727.315 826.255 727.092 830.787C726.926 834.165 727.288 837.806 726.097 840.806C725.414 842.526 722.098 843.201 718.804 844.972C718.016 842.472 717.415 839.917 717.005 837.328C716.761 833.367 716.906 829.383 716.882 825.408C716.851 820.298 717.527 815.047 716.555 810.122C715.766 806.123 712.996 802.515 711.154 798.834C712.825 797.107 715.045 796.017 717.433 795.751C719.821 795.485 722.226 796.06 724.236 797.377C725.627 798.29 727.261 798.762 728.925 798.732C730.588 798.703 732.204 798.173 733.563 797.213C742.229 792.032 749.843 794.345 756.896 801.339C760.754 799.186 764.735 797.263 768.82 795.58C779.496 791.829 788.493 797.284 789.966 808.295C790.359 812.25 790.492 816.226 790.364 820.199C790.371 826.397 790.183 832.359 794.933 837.595C797.374 840.285 794.383 844.071 790.275 844.149C784.381 844.261 781.097 842.037 780.669 836.936C780.242 831.857 780.507 826.723 780.31 821.62C780.157 817.664 779.929 813.695 779.386 809.78C778.943 808.22 778.269 806.736 777.386 805.377Z" fill="#CE5543"/>
<path d="M1202.81 617.758C1197.83 615.297 1194.26 614.599 1192.45 612.434C1187.75 606.808 1183.87 600.504 1179.58 594.533C1175.66 589.087 1171.63 583.722 1166.53 576.806C1165.14 580.105 1163.81 581.849 1163.74 583.641C1163.46 590.99 1163.73 598.36 1163.47 605.711C1163.08 616.689 1159.88 618.247 1147.26 612.968C1153.67 606.94 1153.88 599.325 1153.68 591.41C1153.38 579.562 1153.6 567.701 1153.6 556.45C1158.25 552.689 1161.92 553.462 1164.61 557.102C1170.99 565.75 1177.04 574.65 1183.23 583.437C1185.47 587.117 1188.42 590.311 1191.91 592.829C1196.59 579.727 1191.5 566.997 1195.78 554.795H1209.09C1208.76 557.378 1209.12 559.83 1208.24 560.406C1203.69 563.405 1203.65 567.811 1203.65 572.398C1203.67 583.72 1203.69 595.042 1203.61 606.363C1203.6 609.107 1203.24 611.849 1202.81 617.758Z" fill="#CE5543"/>
<path d="M1560.24 613.083C1565.51 608.182 1567.32 602.246 1567.06 594.996C1566.59 582.048 1566.93 569.071 1566.93 556.54C1571.37 552.827 1574.9 553.329 1577.72 557.055C1582.16 562.913 1586.25 569.035 1590.59 574.974C1593.87 579.47 1597.3 583.854 1601.57 589.472C1603.93 586.259 1606.34 584.418 1606.65 582.271C1607.38 577.273 1606.99 572.121 1607.27 567.042C1607.48 563.179 1608.02 559.334 1608.48 554.799H1622.01C1622.87 561.623 1615.64 564.558 1616.89 570.94C1617.96 576.387 1617.16 582.214 1617.09 587.872C1616.97 596.816 1617.51 605.8 1616.68 613.963C1611.44 617.592 1608.09 615.983 1605.47 612.453C1600.76 606.092 1596.29 599.558 1591.72 593.09C1588.17 588.062 1584.63 583.025 1581.4 578.431C1576.31 579.494 1576.98 582.651 1576.82 585.31C1576.23 594.794 1577.91 604.432 1575.41 614.373C1569.69 616.806 1564.64 618.282 1560.22 612.463L1560.24 613.083Z" fill="#CE5543"/>
<path d="M1536.47 615.503H1520.26C1514.8 611.556 1513.22 603.966 1509.55 597.775C1506.53 592.677 1506.58 592.645 1495.82 592.485C1495.38 599.017 1495.4 605.709 1494.33 612.225C1493.63 616.512 1490.19 616.975 1486.28 614.753C1483.88 608.951 1485.39 602.652 1485.08 596.514C1484.85 591.991 1485.03 587.447 1485.03 582.913C1485.02 568.432 1485.02 568.432 1479.95 556.392C1489.47 553.423 1508.24 552.766 1514.59 555.179C1518.84 556.889 1522.27 560.169 1524.16 564.339C1526.06 568.51 1526.28 573.25 1524.77 577.575C1523.96 579.689 1522.89 581.691 1521.58 583.535C1520.35 585.366 1518.77 586.967 1516.6 589.566C1519.43 594.855 1521.97 600.429 1525.3 605.491C1525.72 606.241 1526.28 606.901 1526.96 607.432C1527.63 607.963 1528.41 608.356 1529.24 608.588C1530.07 608.819 1530.93 608.885 1531.79 608.782C1532.64 608.678 1533.46 608.408 1534.21 607.985C1535.35 607.301 1536.33 606.385 1537.09 605.296C1537.85 604.207 1538.37 602.97 1538.61 601.666C1538.73 588.162 1540.75 574.558 1537.32 561.167C1539.01 561.397 1540.56 562.273 1541.62 563.613C1542.69 564.953 1543.2 566.653 1543.04 568.359C1543.13 575.139 1542.74 581.95 1543.25 588.694C1544 598.489 1542.33 607.475 1536.47 615.503ZM1495.41 582.421C1499.1 582.601 1502.79 582.578 1506.48 582.351C1512.61 581.593 1515.58 578.208 1515.7 572.509C1515.82 571.255 1515.69 569.989 1515.32 568.785C1514.95 567.58 1514.34 566.461 1513.54 565.493C1512.73 564.525 1511.74 563.727 1510.62 563.146C1509.5 562.564 1508.28 562.211 1507.02 562.106C1503.15 561.924 1499.26 562.077 1495.41 562.565L1495.41 582.421Z" fill="#CE5543"/>
<path d="M1355.45 590.745V557.617C1360.5 552.703 1365.06 552.921 1370.22 555.834C1368.53 560.471 1366.23 564.8 1365.47 569.384C1364.65 574.354 1365.35 579.564 1365.24 584.666C1365.01 594.739 1365.94 604.874 1364.66 614.293C1359.44 617.378 1356.11 615.947 1353.49 612.281C1347.88 604.446 1342.4 596.514 1336.79 588.681C1333.89 584.635 1330.81 580.716 1326.96 575.603C1323.74 580.661 1325.06 585.155 1324.82 589.27C1324.59 593.226 1324.9 597.213 1324.73 601.175C1324.54 605.604 1324.07 610.02 1323.65 615.349H1310.42C1310.13 613.323 1309.5 611.568 1309.89 611.302C1314.89 607.891 1314.88 602.786 1314.88 597.624C1314.86 586.849 1314.85 576.073 1314.89 565.298C1314.91 562 1315.09 558.702 1315.18 556.004C1320.24 552.825 1323.69 553.724 1326.37 557.499C1332.94 566.74 1339.35 576.102 1345.97 585.301C1347.95 587.756 1350.07 590.094 1352.33 592.301C1353.37 591.783 1354.41 591.264 1355.45 590.745Z" fill="#CE5543"/>
<path d="M1541.34 511.136C1532.79 510.731 1524.74 506.98 1518.93 500.694C1513.12 494.407 1510.01 486.088 1510.28 477.531C1510.55 468.974 1514.17 460.865 1520.36 454.954C1526.55 449.042 1534.82 445.802 1543.38 445.932C1558.96 446.545 1576.16 457.782 1575.07 480.492C1574.93 484.738 1573.93 488.911 1572.15 492.766C1570.36 496.62 1567.82 500.078 1564.68 502.934C1561.53 505.791 1557.85 507.988 1553.84 509.397C1549.83 510.806 1545.58 511.397 1541.34 511.136ZM1565.17 479.061C1565.48 466.009 1556.37 455.812 1543.95 455.316C1540.85 455.189 1537.76 455.692 1534.86 456.795C1531.95 457.897 1529.31 459.577 1527.07 461.731C1524.84 463.886 1523.06 466.471 1521.85 469.331C1520.65 472.191 1520.03 475.266 1520.05 478.37C1520.07 490.81 1529.86 501.902 1541.55 502.716C1553.89 503.575 1564.84 492.609 1565.17 479.061Z" fill="#CE5543"/>
<path d="M1428.58 509.978C1424.57 509.11 1420.95 507.654 1417.36 507.744C1414.12 507.826 1411 509.993 1407.71 510.563C1394.79 512.799 1383.94 508.908 1376.74 497.845C1372.96 492.461 1370.88 486.069 1370.77 479.493C1370.66 472.917 1372.52 466.458 1376.11 460.948C1382.83 449.741 1393.55 445.007 1406.37 446.15C1411.28 446.588 1416.07 448.871 1420.79 450.667C1422.95 451.491 1424.72 453.717 1423.31 455.961C1422.73 456.822 1421.95 457.538 1421.05 458.053C1420.15 458.568 1419.14 458.869 1418.1 458.933C1414.84 458.524 1411.81 456.355 1408.54 455.821C1389.82 452.764 1376.8 468.091 1382.4 486.372C1387.2 502.065 1404.9 507.379 1417.84 497.058C1420.99 494.544 1420.89 492.84 1416.57 485.776C1414.31 482.083 1415.82 479.216 1420.05 478.984C1426.95 478.605 1429.86 480.747 1429.94 487.307C1430.02 494.52 1431.07 501.867 1428.58 509.978Z" fill="#CE5543"/>
<path d="M1191.22 511.17C1173.18 510.868 1159.53 496.7 1159.59 478.327C1159.57 474.077 1160.39 469.866 1162 465.934C1163.62 462.001 1165.99 458.426 1168.98 455.41C1171.98 452.395 1175.54 450 1179.46 448.361C1183.38 446.722 1187.59 445.872 1191.84 445.86C1196.22 445.878 1200.56 446.778 1204.6 448.505C1208.63 450.232 1212.28 452.753 1215.32 455.916C1218.36 459.079 1220.73 462.821 1222.3 466.92C1223.87 471.019 1224.6 475.391 1224.44 479.776C1224.34 484.023 1223.39 488.207 1221.66 492.087C1219.93 495.967 1217.45 499.467 1214.37 502.385C1211.28 505.302 1207.64 507.581 1203.67 509.089C1199.7 510.596 1195.47 511.304 1191.22 511.17ZM1192.55 455.304C1181.04 454.421 1170.59 463.101 1169.27 477.296C1168.08 490.122 1178.92 502.326 1191.32 502.751C1203.48 503.168 1214.87 491.596 1214.71 478.501C1214.57 466.342 1205.01 454.927 1192.55 455.304Z" fill="#CE5543"/>
<path d="M1681.95 559.049C1681.54 563.897 1679.6 565.859 1676.31 565.208C1671.91 564.337 1667.71 562.123 1663.31 561.668C1658.17 561.105 1653.01 562.388 1648.73 565.288C1644.46 568.188 1641.36 572.515 1639.99 577.494C1638.38 582.678 1638.51 588.247 1640.37 593.348C1642.23 598.449 1645.71 602.801 1650.27 605.738C1652.42 607.137 1654.83 608.099 1657.35 608.567C1659.88 609.034 1662.47 608.999 1664.98 608.463C1670.5 607.186 1675.87 605.305 1678.5 598.501C1676.78 595.563 1674.89 592.327 1672.77 588.712C1674.48 587.413 1675.64 585.775 1676.92 585.676C1685.54 585.006 1687.64 586.564 1687.92 594.236C1688.17 600.963 1687.84 607.711 1687.75 615.831C1682.99 615.069 1679.43 613.927 1675.95 614.108C1672.66 614.28 1669.49 616.108 1666.17 616.748C1648.93 620.075 1634.48 610.833 1630.03 593.787C1625.76 577.415 1634.07 560.278 1649.15 554.679C1660.61 550.424 1671.41 551.946 1681.95 559.049Z" fill="#CE5543"/>
<path d="M1478.38 448.295C1478.84 451.029 1479.06 453.797 1479.05 456.569C1478.54 461.004 1475.05 462.964 1472.24 459.935C1466.42 453.649 1460.09 456.095 1452.76 456.551V472.491C1457.67 473.001 1462.06 473.59 1466.47 473.87C1469.51 474.063 1472.58 474.704 1472.89 477.998C1473.21 481.43 1470.29 482.495 1467.21 482.655C1462.76 482.886 1458.31 483.153 1453.32 483.434C1451.58 488.317 1451.37 493.617 1452.73 498.621C1462.14 506.388 1470.58 499.941 1479.47 495.726C1482.87 500.617 1482.93 504.489 1479.28 509.268C1467.62 510.934 1455.79 510.915 1444.13 509.21C1443.19 505.964 1442.5 502.645 1442.1 499.287C1441.79 491.926 1441.99 484.543 1441.97 477.169C1441.95 472.065 1442.53 466.853 1441.68 461.89C1440.98 457.863 1438.56 454.133 1436.41 449.132C1450.4 445.705 1463.58 447.186 1478.38 448.295Z" fill="#CE5543"/>
<path d="M275.727 825.256H254.748C252.4 829.914 250.112 834.944 247.386 839.724C244.619 844.577 241.533 844.75 234.756 840.663C244.069 822.758 249.857 803.382 257.18 784.604C257.786 783.023 258.544 781.505 259.442 780.069C260.088 779.148 260.948 778.398 261.949 777.882C262.949 777.367 264.06 777.102 265.185 777.111C266.311 777.119 267.417 777.401 268.409 777.932C269.402 778.462 270.251 779.226 270.883 780.157C272.489 783.137 273.855 786.241 274.969 789.438C279.39 801.076 283.566 812.811 288.166 824.378C289.803 828.496 292.663 832.121 294.408 836.209C294.819 837.183 295.025 838.231 295.014 839.289C295.002 840.346 294.773 841.39 294.341 842.356C292.55 845.251 289.058 844.607 286.808 843.127C284.605 841.415 282.809 839.236 281.549 836.747C279.331 832.945 277.543 828.894 275.727 825.256ZM274.806 816.042L265.587 791.239C261.066 799.981 258.091 807.147 257.094 816.042H274.806Z" fill="#CE5543"/>
<path d="M424.711 826.465C417.025 824.066 409.864 824.739 402.094 825.764C400.383 829.927 398.446 833.994 396.293 837.946C394.869 840.319 392.796 842.235 390.318 843.468C388.759 844.173 385.991 843.279 384.317 842.223C383.814 841.602 383.479 840.863 383.344 840.075C383.209 839.287 383.279 838.478 383.547 837.725C392.749 822.631 396.507 805.331 403.404 789.318C404.592 786.153 405.959 783.058 407.499 780.048C409.74 776.145 416.742 776.182 419.012 780.071C420.336 782.559 421.451 785.153 422.344 787.825C426.527 798.926 430.468 810.122 434.883 821.129C436.947 826.277 440.095 830.983 442.319 836.077C443.088 837.838 443.272 841.559 442.473 841.973C440.143 843.184 437.475 843.579 434.894 843.094C433.09 842.657 431.375 840.373 430.35 838.509C428.205 834.612 426.541 830.449 424.711 826.465ZM412.056 792.356C409.223 800.632 406.718 807.95 404.1 815.601C410.567 817.152 415.818 818.154 421.408 814.646C419.311 806.655 417.912 799.164 412.056 792.356Z" fill="#CE5543"/>
<path d="M1327.68 508.932C1327.54 498.912 1327.39 490.459 1327.31 482.005C1327.25 476.321 1326.51 470.497 1327.49 464.99C1328.62 458.688 1322.17 455.508 1321.56 450.681C1323.42 449.189 1324.24 447.964 1325.09 447.943C1335.86 447.667 1346.64 447.326 1357.4 447.52C1362.69 447.615 1364.98 451.362 1364.2 457.071C1363.78 460.19 1359.89 462.626 1358.13 460.515C1352.79 454.118 1346.3 455.432 1339.73 456.436C1335.39 460.988 1337.83 466.096 1337.5 471.032C1338.97 472.049 1340.58 472.852 1342.28 473.419C1346.73 474.115 1351.32 474.091 1355.67 475.117C1356.93 475.416 1357.59 478.294 1359.23 481.269C1351.62 482.162 1345.6 482.866 1339.68 483.561C1337.29 491.048 1337.15 491.049 1339.08 500.625C1345.28 502.12 1351.76 503.779 1357.81 498.907C1360.24 496.949 1363.12 495.402 1365.14 497.762C1366.61 499.483 1366.26 502.909 1366.35 505.588C1366.39 506.537 1365.32 507.523 1364.23 509.407C1352.09 510.968 1339.78 510.808 1327.68 508.932Z" fill="#CE5543"/>
<path d="M613.656 799.326C615.158 798.43 616.719 797.638 618.329 796.957C635.651 790.966 644.306 796.854 645.179 815.19C645.286 817.453 645.241 819.725 645.203 821.992C645.107 827.648 645.088 832.985 649.581 837.692C652.085 840.315 649.103 844.126 644.98 844.168C637.961 844.24 635.354 842.168 635.1 835.636C634.813 828.276 635.285 820.873 634.734 813.54C634.061 804.592 626.505 801.035 618.962 805.732C616.735 807.012 614.869 808.835 613.536 811.031C612.203 813.226 611.447 815.724 611.339 818.29C611.029 823.944 611.168 829.621 610.9 835.278C610.905 837.514 610.442 839.727 609.541 841.773C609.049 842.396 608.419 842.895 607.7 843.231C606.982 843.568 606.195 843.732 605.402 843.712C604.05 843.62 601.753 842.23 601.661 841.243C601.086 835.067 600.866 828.846 600.803 822.638C600.672 809.624 600.743 809.624 595.405 798.618C601.774 792.478 607.757 798.045 613.656 799.326Z" fill="#CE5543"/>
<path d="M1153.72 499.968C1140.56 512.483 1124.48 514.627 1111.51 506.244C1099.34 498.382 1094.3 481.661 1099.04 467.026C1104.11 451.373 1125.31 438.365 1146.86 450.842C1149.14 452.474 1150.96 454.66 1152.15 457.193C1153.53 459.662 1154.24 462.84 1151.43 464.847C1150.89 465.317 1150.25 465.652 1149.56 465.826C1148.86 466 1148.14 466.008 1147.44 465.848C1146.74 465.689 1146.09 465.367 1145.54 464.909C1144.99 464.45 1144.56 463.869 1144.28 463.211C1139.76 453.817 1131.53 454.755 1123.73 456.018C1115.78 457.304 1110.95 462.91 1108.54 470.478C1106.97 474.778 1106.68 479.442 1107.71 483.904C1108.73 488.366 1111.03 492.434 1114.32 495.616C1121.36 502.79 1129.94 504.29 1139.32 500.301C1142.3 498.767 1145.44 497.581 1148.68 496.766C1150.09 496.53 1151.9 498.738 1153.72 499.968Z" fill="#CE5543"/>
<path d="M1418.37 555.458C1421.22 559.566 1421.46 563.524 1417.74 567.314C1406.77 561.957 1406.77 561.957 1395.58 562.466C1391.76 567.417 1393.02 572.84 1394.46 579.485C1399.92 579.934 1405.4 580.342 1410.86 580.858C1412.74 581.036 1413.17 582.304 1413.38 588.282C1407.35 588.628 1401.28 588.976 1395.27 589.32C1391.98 595.055 1392.99 600.508 1394.47 607.024C1401.88 608.583 1409.15 610.932 1415.8 603.866C1416.69 602.921 1420.48 603.289 1421.64 604.398C1422.3 605.251 1422.77 606.236 1423.02 607.287C1423.27 608.338 1423.29 609.43 1423.07 610.488C1422.42 612.552 1421.09 614.336 1419.29 615.55C1417.77 616.308 1416.05 616.585 1414.37 616.344C1404.87 615.957 1395.24 617.643 1385.14 614.93C1384.34 611.712 1383.76 608.443 1383.41 605.145C1383.14 598.364 1383.57 591.553 1383.25 584.776C1382.79 575.113 1386.28 564.78 1376.91 556.738C1389.83 553.055 1402.86 552.805 1418.37 555.458Z" fill="#CE5543"/>
<path d="M1114.66 607.09C1123.84 609.695 1131.09 608.796 1137.73 603.122C1139.27 601.809 1142.16 603.337 1142.97 605.848C1144.65 610.993 1142.2 615.928 1137.43 616.083C1126.83 616.429 1116.13 617.444 1104.89 615.03C1104.21 611.627 1103.73 608.186 1103.46 604.726C1103.28 594.526 1103.43 584.321 1103.36 574.118C1103.31 565.943 1103.25 565.943 1098.07 556.969C1099.29 556.028 1100.53 554.243 1101.81 554.211C1112.56 553.943 1123.33 553.794 1134.08 554.039C1139.3 554.159 1141.33 557.808 1140.27 563.77C1139.71 566.923 1136.06 568.946 1134.11 566.675C1128.76 560.443 1122.26 561.496 1115.39 562.491C1111.62 567.692 1113.82 573.182 1114.02 579.457C1119.76 579.673 1125.49 580.204 1131.17 581.048C1134.22 581.651 1135.4 584.452 1132.57 588.436C1127.19 588.72 1121.14 589.039 1115.04 589.362C1112.36 595.406 1112.93 600.844 1114.66 607.09Z" fill="#CE5543"/>
<path d="M1471.19 615.891H1436.12C1435.04 612.732 1434.29 609.474 1433.87 606.165C1433.59 595.428 1433.8 584.679 1433.72 573.935C1433.66 565.701 1433.59 565.701 1428.12 557.423C1430.78 552.122 1435.81 554.076 1439.97 553.827C1445.04 553.522 1450.15 553.634 1455.23 553.79C1459.67 553.927 1464.1 554.374 1469.16 554.728C1469.89 557.532 1470.34 560.4 1470.5 563.291C1470.51 563.995 1470.33 564.689 1469.99 565.307C1469.66 565.925 1469.17 566.447 1468.57 566.823C1467.98 567.2 1467.3 567.419 1466.59 567.46C1465.89 567.501 1465.19 567.363 1464.55 567.058C1454.13 561.899 1454.14 561.789 1446 562.313C1441.98 567.188 1443.51 572.618 1444.33 577.403C1450.18 583.934 1459.77 576.395 1464.36 584.314C1464.57 584.681 1464.19 585.392 1463.84 587.204C1458.68 590.85 1451.28 587.232 1444.63 590.274C1442.93 595.839 1443.09 601.807 1445.08 607.273C1452.62 608.585 1459.85 610.516 1466.49 603.595C1469 600.974 1473.4 603.722 1473.31 607.761C1472.91 610.543 1472.2 613.271 1471.19 615.891Z" fill="#CE5543"/>
<path d="M355.138 840.961C343.214 845.963 339.48 844.052 339.103 833.397C338.864 826.621 339.245 819.811 338.745 813.061C338.095 804.3 330.32 800.953 322.868 805.939C320.485 807.487 318.526 809.605 317.168 812.101C315.811 814.598 315.098 817.394 315.095 820.236C314.941 824.187 315.055 828.149 314.927 832.103C314.821 835.414 314.538 838.72 314.348 841.78C307.084 843.681 305.376 843.23 305.224 839.182C304.904 830.717 305.165 822.227 304.732 813.77C304.672 810.523 303.76 807.35 302.088 804.566C300.434 802.156 297.964 800.176 300.444 797.584C301.315 796.913 302.315 796.428 303.382 796.16C304.449 795.892 305.559 795.847 306.644 796.026C310.213 796.886 313.707 798.034 317.091 799.458C320.717 797.71 324.472 796.246 328.324 795.077C339.228 792.463 347.338 798.274 348.868 809.349C349.058 811.034 349.143 812.729 349.123 814.425C349.189 819.511 348.478 824.749 349.483 829.638C350.297 833.606 353.151 837.154 355.138 840.961Z" fill="#CE5543"/>
<path d="M444.811 796.84H458.77C459.965 798.755 461.012 799.664 461.051 800.614C461.372 808.533 461.396 816.465 461.735 824.383C462.02 831.048 464.017 834.286 468.069 835.022C473.549 836.017 478.618 834.726 481.299 829.733C483.369 825.763 484.659 821.434 485.1 816.979C485.728 810.822 485.259 804.552 485.259 797.456C488.262 796.988 490.756 796.599 492.888 796.266C493.957 797.991 494.994 798.896 495.022 799.83C495.243 807.195 495.306 814.565 495.348 821.934C495.38 827.553 495.039 832.946 499.727 837.615C502.301 840.177 499.166 844.378 495.23 844.156C493.547 844.062 491.402 844.424 490.276 843.543C485.687 839.954 481.582 840.075 476.566 843.041C473.882 844.629 470.029 844.691 466.71 844.665C458.896 844.602 453.813 840.523 452.362 832.853C451.734 828.368 451.474 823.839 451.587 819.311C451.359 808.699 451.406 808.698 444.811 796.84Z" fill="#CE5543"/>
<path d="M589.16 820.158C589.147 823.547 588.442 826.897 587.089 830.003C585.735 833.109 583.762 835.906 581.289 838.223C578.816 840.54 575.897 842.327 572.709 843.476C569.521 844.624 566.133 845.11 562.751 844.902C548.809 844.11 537.943 833.879 537.707 820.256C537.714 813.395 540.429 806.814 545.262 801.943C550.094 797.073 556.654 794.307 563.515 794.246C566.911 794.224 570.278 794.881 573.417 796.179C576.556 797.477 579.404 799.389 581.793 801.803C584.182 804.217 586.065 807.085 587.33 810.237C588.595 813.389 589.217 816.762 589.16 820.158ZM579.113 820.708C579.496 811.109 573.184 803.756 564.257 803.4C562.126 803.298 559.997 803.626 557.995 804.364C555.994 805.102 554.161 806.234 552.606 807.695C551.052 809.155 549.806 810.914 548.945 812.865C548.083 814.816 547.623 816.921 547.591 819.054C547.197 827.706 554.349 836.087 562.727 836.789C571.037 837.486 578.746 829.921 579.113 820.708Z" fill="#CE5543"/>
<path d="M706.744 819.041C707.213 833.513 696.213 844.189 681.272 844.915C674.729 845.157 668.351 842.83 663.502 838.431C658.653 834.031 655.718 827.909 655.325 821.374C655.114 817.982 655.581 814.583 656.7 811.375C657.818 808.167 659.566 805.214 661.84 802.689C664.114 800.165 666.869 798.119 669.943 796.673C673.017 795.226 676.35 794.408 679.744 794.265C686.598 794.016 693.274 796.476 698.328 801.113C703.381 805.75 706.404 812.191 706.744 819.041ZM665.427 819.733C665.385 829.236 672.227 836.848 680.797 836.832C689.224 836.817 696.767 828.894 696.779 820.049C696.791 810.534 690.188 803.475 681.171 803.362C671.996 803.248 665.47 810.034 665.427 819.733Z" fill="#CE5543"/>
<path d="M828.187 794.245C842.551 794.75 854.199 806.828 853.399 820.776C852.525 836.015 840.524 845.669 826.227 844.86C811.49 844.027 801.2 832.868 802.102 817.943C802.542 811.387 805.505 805.256 810.369 800.837C815.232 796.419 821.618 794.056 828.187 794.245ZM812.14 819.891C812.168 829.357 819.145 836.979 827.659 836.843C836.11 836.708 843.542 828.747 843.483 819.893C843.421 810.441 836.711 803.408 827.718 803.368C818.553 803.327 812.111 810.159 812.14 819.891Z" fill="#CE5543"/>
<path d="M1617.76 461.834C1611.77 458.702 1606.08 452.448 1598.35 457.019C1596.3 464.943 1596.3 464.943 1598.09 472.966C1603.28 478.235 1612.03 471.464 1616.58 478.597C1616.82 478.962 1616.51 479.671 1616.39 480.908C1611.39 486.188 1603.4 480.767 1597 485.676C1596.56 492.183 1596.39 499.472 1595.46 506.665C1595.01 510.164 1591.96 510.499 1587.8 509.008C1587.21 507.219 1586.81 505.37 1586.62 503.493C1586.46 493.264 1586.51 483.031 1586.48 472.8C1586.44 461.156 1586.43 461.156 1580.93 449.813C1582.86 448.996 1584.73 447.562 1586.63 447.513C1595.71 447.278 1604.82 447.084 1613.89 447.534C1620.95 447.885 1622.21 452.251 1617.76 461.834Z" fill="#CE5543"/>
<path d="M1312.62 821.783C1317.2 837.258 1320.42 838.389 1340.46 833.212C1342.89 835.286 1344.32 838.076 1341.33 840.192C1336.68 843.456 1331.11 845.152 1325.43 845.033C1319.75 844.914 1314.25 842.986 1309.74 839.53C1305.63 836.004 1302.72 831.288 1301.41 826.034C1300.09 820.78 1300.44 815.247 1302.41 810.201C1306.35 799.454 1317.25 792.789 1327.78 794.688C1339.69 796.838 1344.92 804.821 1343.96 820.493C1334.03 820.902 1323.97 821.315 1312.62 821.783ZM1334.99 813.382C1333.21 805.742 1329.77 802.74 1323.87 803.013C1317.73 803.298 1313.42 805.885 1312.83 813.382H1334.99Z" fill="#CE5543"/>
<path d="M586.096 319.544C589.355 324.074 592.318 328.809 594.968 333.72C605.901 357.227 616.546 380.868 627.157 404.523C628.336 407.686 629.299 410.925 630.04 414.218C625.826 414.744 622.186 413.724 619.888 409.901C605.493 385.956 591.125 361.995 576.782 338.019C579.887 331.86 582.991 325.702 586.096 319.544Z" fill="#C73B28"/>
<path d="M1246.13 500.388C1254.32 502.302 1260.23 503.187 1265.7 498.419C1266.55 497.832 1267.53 497.465 1268.56 497.352C1269.58 497.239 1270.62 497.384 1271.57 497.773C1272.95 498.768 1273.46 501.591 1273.53 503.647C1273.61 505.062 1273.19 506.46 1272.32 507.586C1271.46 508.711 1270.22 509.487 1268.83 509.771C1268.3 509.967 1267.75 510.089 1267.18 510.136C1257.66 510.159 1248.14 510.153 1237.8 510.153C1236.78 506.788 1236.05 503.34 1235.63 499.849C1235.37 489.129 1235.48 478.399 1235.52 467.673C1235.53 462.605 1235.68 457.834 1231.09 453.93C1228.76 451.942 1230.71 448.236 1233.75 447.72C1241.21 446.449 1245.06 448.953 1245.29 455.873C1245.59 464.896 1245.34 473.936 1245.47 482.966C1245.54 488.516 1245.88 494.063 1246.13 500.388Z" fill="#CE5543"/>
<path d="M995.833 844.222C995.851 844.224 993.583 844.123 991.347 843.797C988.419 843.37 986.163 839.366 988.245 837.485C994.117 832.181 993.461 825.542 993.4 818.839C993.338 812.025 993.384 805.21 993.384 798.396C993.384 793.341 993.733 788.591 988.607 784.834C985.774 782.758 988.271 777.837 991.942 777.391C994.193 777.132 996.457 777.003 998.723 777.005C1009.4 776.947 1009.7 777.602 1005.15 787.553C1004.06 790.098 1003.5 792.833 1003.49 795.599C1003.31 805.817 1003.4 816.04 1003.43 826.261C1003.31 829.609 1004.47 832.877 1006.67 835.405C1010.88 840.501 1009.18 843.849 1003.23 844.207C1001.53 844.308 999.821 844.222 995.833 844.222Z" fill="#CE5543"/>
<path d="M1290.98 451.843V499.616C1300.82 504.668 1308.28 500.639 1315.65 495.74C1320.01 500.356 1319.55 504.259 1317.08 508.243C1313.45 511.123 1300.62 511.309 1282.78 508.732C1281.82 505.733 1281.15 502.646 1280.8 499.515C1280.54 488.181 1280.74 476.837 1280.62 465.499C1280.59 462.728 1280.75 459.546 1279.49 457.302C1277.98 454.623 1273.19 452.877 1276.47 449.173C1279.45 445.799 1283.76 447.141 1287.51 448.794C1288.75 449.721 1289.91 450.74 1290.98 451.843Z" fill="#CE5543"/>
<path d="M532.298 802.083C528.451 803.197 525.76 803.931 523.108 804.788C522.65 804.936 522.361 805.605 520.857 807.36C520.857 811.008 520.869 815.994 520.855 820.981C520.836 827.612 522.152 833.341 529.801 835.224C530.82 835.65 531.636 836.454 532.078 837.466C532.345 837.942 532.51 838.467 532.565 839.009C532.62 839.551 532.562 840.099 532.396 840.617C531.609 841.893 530.241 843.603 529.017 843.687C520.137 844.297 513.333 839.583 511.799 831.027C510.928 824.9 510.575 818.71 510.745 812.523C510.709 807.795 509.938 803.654 505.249 801.862C507.631 795.949 509.495 790.887 511.753 786.008C512.349 784.721 514.347 783.026 515.37 783.224C517.194 783.578 520.121 785.13 520.214 786.359C520.664 792.35 523.545 795.412 529.271 796.798C530.52 797.1 531.148 799.964 532.298 802.083Z" fill="#CE5543"/>
<path d="M1151.35 799.64C1147.36 798.119 1145.29 801.531 1142.38 802.945C1139.51 804.001 1136.55 804.788 1133.53 805.297C1133.53 811.347 1133.6 816.939 1133.51 822.53C1133.42 828.817 1135.14 833.699 1142.17 835.124C1143.22 835.504 1144.08 836.286 1144.56 837.298C1144.83 837.781 1145 838.314 1145.05 838.864C1145.1 839.414 1145.04 839.968 1144.87 840.493C1144.13 841.808 1142.88 843.543 1141.63 843.742C1137.36 844.199 1133.09 842.947 1129.75 840.26C1126.41 837.573 1124.27 833.67 1123.8 829.407C1123.3 823.19 1123.21 816.948 1123.51 810.719C1123.82 805.921 1120.28 804.076 1117.42 800.721C1118.13 795.625 1125.15 792.917 1124.2 786.531C1124.07 785.633 1127.41 783.189 1128.93 783.361C1130.52 783.541 1132.3 785.789 1133.18 787.544C1133.91 789.568 1134.37 791.681 1134.54 793.826C1139.9 796.155 1144.82 798.322 1149.78 800.397C1150.18 800.563 1150.84 800.096 1151.38 799.918L1151.35 799.64Z" fill="#CE5543"/>
<path d="M1283.81 805.284C1283.81 809.966 1283.94 814.982 1283.78 819.99C1283.56 827.265 1284.5 833.545 1293.22 835.604C1294.27 835.853 1295.54 839.727 1294.94 841.186C1294.35 842.034 1293.55 842.721 1292.63 843.185C1291.71 843.649 1290.68 843.875 1289.65 843.843C1279.42 842.214 1274.7 837.149 1273.88 827.091C1273.34 822.034 1273.33 816.934 1273.84 811.874C1274.54 806.48 1271.05 803.891 1267.64 800.265C1269.44 795.476 1275.29 792.266 1274.54 786.007C1274.45 785.225 1276.8 783.563 1278.18 783.361C1279.56 783.159 1282.42 784.281 1282.42 784.818C1282.4 792.894 1288.19 795.689 1294.14 798.559C1294.56 798.765 1294.19 800.624 1294.19 802.32C1291.26 803.158 1288.11 804.057 1283.81 805.284Z" fill="#CE5543"/>
<path d="M1120.59 715.297C1114.57 715.391 1109.56 714.662 1105.89 710.419C1105.59 709.972 1105.39 709.462 1105.31 708.928C1105.24 708.394 1105.28 707.85 1105.45 707.336C1105.79 706.494 1107.18 705.38 1107.9 705.509C1111.74 706.188 1115.48 707.694 1119.31 707.923C1120.38 707.823 1121.41 707.469 1122.32 706.891C1123.22 706.312 1123.97 705.526 1124.51 704.597C1124.86 703.596 1124.95 702.526 1124.78 701.481C1124.61 700.436 1124.19 699.447 1123.55 698.603C1120 695.853 1116.29 693.306 1112.45 690.975C1105.43 686.07 1103 680.83 1105.11 675.442C1107.62 669.026 1113.86 665.372 1121.65 666.339C1124.46 666.587 1127.13 667.666 1129.32 669.438C1131.07 671.091 1132.83 674.718 1132.13 676.553C1130.76 680.186 1128.17 678.481 1125.58 676.57C1123.28 675.084 1120.65 674.205 1117.92 674.016C1117.11 674.109 1116.34 674.394 1115.66 674.848C1114.99 675.302 1114.43 675.911 1114.04 676.625C1113.74 677.385 1113.62 678.206 1113.69 679.022C1113.76 679.837 1114.02 680.625 1114.45 681.322C1116.37 683.366 1118.57 685.138 1120.97 686.587C1123.8 688.458 1127.02 689.777 1129.72 691.804C1131.61 693.114 1133.06 694.951 1133.91 697.084C1134.75 699.217 1134.95 701.551 1134.48 703.796C1134.12 706.347 1133.02 708.737 1131.31 710.663C1129.6 712.59 1127.36 713.967 1124.87 714.623C1123.46 714.978 1122.03 715.203 1120.59 715.297Z" fill="#F2A353"/>
<path d="M1157.4 681.947C1164.28 681.122 1170.32 680.345 1176.37 679.683C1184.6 678.783 1189.34 682.317 1190.46 690.584C1191.42 697.727 1191.93 704.931 1192.66 712.335C1186.1 714.974 1183.43 713.963 1182.62 708.098C1181.72 701.51 1183.97 694.515 1179.77 687.437C1177.35 687.827 1174.24 687.494 1172.35 688.859C1170.2 690.611 1168.74 693.062 1168.21 695.784C1167.29 700.743 1167.52 705.904 1166.79 710.91C1166.5 711.648 1166.02 712.299 1165.41 712.802C1164.79 713.305 1164.06 713.643 1163.28 713.785C1162.14 713.811 1160.52 712.143 1159.89 710.845C1159.37 709.245 1159.13 707.563 1159.2 705.88C1158.6 698.193 1158.04 690.502 1157.4 681.947Z" fill="#F2A353"/>
<path d="M1151.35 799.64L1151.38 799.918C1154.71 793.293 1159.49 796.545 1164.84 798.016C1165.23 801.218 1165.86 804.467 1165.96 807.734C1166.15 813.919 1165.39 820.203 1166.24 826.276C1166.96 831.455 1169.39 836.396 1171.05 841.39C1166.49 845.226 1162.51 844.293 1158.04 841.147C1155.67 833.837 1157.04 825.918 1156.96 818.154C1156.89 811.313 1156.55 804.809 1151.35 799.64Z" fill="#C83C2A"/>
<path d="M1243.03 699.397C1241.26 705.09 1243.86 707.761 1248.4 708.17C1252.68 708.284 1256.97 708.09 1261.23 707.589C1261.7 712.16 1259.16 713.591 1256.49 714.384C1251.62 716.066 1246.3 715.789 1241.63 713.612C1233.74 709.709 1230.27 699.73 1233.39 690.114C1234.57 686.606 1236.97 683.634 1240.14 681.725C1243.31 679.816 1247.06 679.094 1250.72 679.687C1254.01 680.325 1257.06 681.854 1259.54 684.107C1261.35 685.714 1262.57 687.872 1263.02 690.245C1263.48 692.618 1263.13 695.075 1262.05 697.234C1255.9 697.933 1249.37 698.676 1243.03 699.397ZM1254.7 693.07C1255.62 687.162 1252.24 685.164 1248.14 685.384C1244.39 685.584 1240.58 687.267 1242.01 693.07H1254.7Z" fill="#F2A353"/>
<path d="M1536.47 615.503C1542.33 607.476 1544 598.489 1543.25 588.694C1542.74 581.95 1543.13 575.139 1543.04 568.359C1543.2 566.653 1542.69 564.953 1541.62 563.613C1540.56 562.273 1539.01 561.397 1537.32 561.167C1536.12 560.227 1534.18 559.432 1533.96 558.303C1533.76 557.292 1535.41 554.917 1536.34 554.859C1541.78 554.524 1547.25 554.695 1554.43 554.695C1553.15 557.868 1552.93 560.365 1551.63 561.246C1548.23 563.542 1548.13 566.758 1548.11 570.102C1548.05 579.648 1548.25 589.199 1548.03 598.74C1547.86 606.438 1551.74 610.909 1558.59 613.361C1559.04 613.524 1559.68 613.188 1560.23 613.084L1560.22 612.463C1559.14 612.148 1557.4 611.237 1557.07 611.603C1551.14 618.15 1543.72 616.29 1536.47 615.503Z" fill="#C83C2A"/>
<path d="M1227.96 707.129C1227.65 713.438 1223.48 714.215 1219.74 714.923C1217.26 715.528 1214.68 715.602 1212.18 715.14C1209.67 714.678 1207.29 713.69 1205.19 712.242C1201.55 709.501 1199.04 705.527 1198.11 701.065C1197.19 696.603 1197.93 691.958 1200.18 687.999C1204.41 680.184 1215.41 676.956 1223.79 681.45C1225.59 682.746 1226.91 684.609 1227.53 686.741C1227.8 687.511 1225.67 690.186 1225.04 690.055C1222.37 689.507 1219.93 687.914 1217.27 687.275C1211.82 685.969 1207.43 689.1 1206.17 694.821C1204.79 701.03 1208.06 707.363 1213.4 708.066C1216.19 708.157 1218.97 707.973 1221.71 707.516C1223.72 707.37 1225.73 707.266 1227.96 707.129Z" fill="#F2A353"/>
<path d="M1151.96 713.626C1143.89 713.532 1142.61 712.798 1142.2 707.692C1141.54 699.458 1141.06 691.209 1140.43 681.835C1142.18 681.316 1144 681.111 1145.82 681.228C1148.96 681.886 1150.02 684.689 1150.23 687.634C1150.83 695.876 1151.33 704.126 1151.96 713.626Z" fill="#F2A353"/>
<path d="M1167 784.614C1163.53 785.673 1161.57 786.875 1159.77 786.682C1157 786.385 1156.56 783.867 1156.97 781.485C1157.38 779.053 1158.93 776.606 1161.37 777.694C1163.36 778.576 1164.49 781.376 1167 784.614Z" fill="#CE5543"/>
<path d="M1150.33 670.72C1148.8 672.167 1147.86 673.841 1146.66 674.048C1146.14 674.19 1145.6 674.187 1145.09 674.038C1144.58 673.889 1144.12 673.6 1143.77 673.204C1143.41 672.808 1143.17 672.32 1143.08 671.796C1142.99 671.272 1143.04 670.733 1143.24 670.238C1143.53 669.589 1143.98 669.024 1144.55 668.598C1145.12 668.171 1145.79 667.896 1146.5 667.8C1147.66 667.845 1148.76 669.442 1150.33 670.72Z" fill="#F2A353"/>
<path d="M645.851 448.945C647.08 449.823 648.309 450.7 649.538 451.577C648.183 450.685 646.825 449.794 645.466 448.901L645.851 448.945Z" fill="#F2A353"/>
<path d="M632.551 417.97C633.63 420.297 634.709 422.623 635.788 424.949C628.601 423.19 628.579 423.108 632.551 417.97Z" fill="#C73B28"/>
<path d="M642.431 440.707C645.215 442.67 646.697 445.159 645.656 448.671C640.685 447.594 642.283 443.857 642.431 440.707Z" fill="#F2A353"/>
<path d="M640.399 435.821C641.073 437.151 641.748 438.481 642.422 439.827C641.748 438.502 641.074 437.161 640.399 435.821Z" fill="#F2A353"/>
</svg>
